http://archive.3zso.com/archives/plantuml-quickstart.html#sec-5-4-1
@startuml

abstract class AbstractList
abstract AbstractCollection
interface List
interface Collection

List <|-- AbstractList
Collection <|-- AbstractCollection

Collection <|- List
AbstractCollection <|- AbstractList
AbstractList <|-- ArrayList

class ArrayList {
Object[] elementData
size()
}

class Test{
ArrayList list;
String a;
demo();
}
enum TimeUnit {
DAYS
HOURS
MINUTES
}
@enduml